<svg xmlns="http://www.w3.org/2000/svg" xmlns:xlink="http://www.w3.org/1999/xlink" width="500" zoomAndPan="magnify" viewBox="0 0 375 374.999991" height="500" preserveAspectRatio="xMidYMid meet" version="1.0"><defs><g/><clipPath id="ecd06df3bf"><path d="M 3.75 0.511719 L 280 0.511719 L 280 370.695312 L 3.75 370.695312 Z M 3.75 0.511719 " clip-rule="nonzero"/></clipPath><clipPath id="54d00aa5e3"><path d="M 166 25 L 374.945312 25 L 374.945312 340 L 166 340 Z M 166 25 " clip-rule="nonzero"/></clipPath></defs><g fill="#000000" fill-opacity="1"><g transform="translate(117.469098, 95.550207)"><g><path d="M 2.109375 0.078125 C 1.804688 0.078125 1.566406 -0.00390625 1.390625 -0.171875 C 1.222656 -0.335938 1.140625 -0.5625 1.140625 -0.84375 C 1.140625 -1.113281 1.222656 -1.332031 1.390625 -1.5 C 1.566406 -1.675781 1.804688 -1.765625 2.109375 -1.765625 C 2.410156 -1.765625 2.644531 -1.679688 2.8125 -1.515625 C 2.988281 -1.347656 3.078125 -1.128906 3.078125 -0.859375 C 3.078125 -0.578125 2.988281 -0.347656 2.8125 -0.171875 C 2.632812 -0.00390625 2.398438 0.078125 2.109375 0.078125 Z M 2.109375 0.078125 "/></g></g></g><path fill="#645958" d="M 146.605469 243.546875 C 143.976562 242.613281 139.785156 240.101562 133.683594 241.8125 C 124.996094 244.746094 123.171875 253.089844 123.171875 253.089844 C 123.171875 253.089844 130.976562 247.347656 132.550781 249.585938 C 134.125 251.828125 139.441406 253.28125 146.546875 250.65625 C 153.65625 248.035156 151.394531 242.800781 151.246094 243.40625 C 151.089844 244.007812 149.230469 244.484375 146.605469 243.546875 " fill-opacity="1" fill-rule="evenodd"/><g clip-path="url(#ecd06df3bf)"><path fill="#645958" d="M 189.347656 0.515625 C 86.847656 0.515625 3.75 83.605469 3.75 186.109375 C 3.75 282.039062 76.53125 360.964844 169.878906 370.695312 L 169.890625 370.363281 C 170.351562 355.125 172.660156 340.34375 164.34375 333.878906 C 154.183594 325.976562 153.597656 312.5625 154.300781 300.976562 C 154.300781 300.976562 142.414062 306.058594 125.09375 305.132812 C 107.773438 304.210938 103.621094 303.519531 97.613281 304.902344 C 91.613281 306.285156 87.222656 312.519531 81.222656 311.136719 C 75.21875 309.75 72.675781 309.519531 68.054688 303.980469 C 63.4375 298.4375 59.742188 297.976562 59.28125 294.507812 C 58.820312 291.046875 59.742188 289.664062 57.898438 286.429688 C 56.046875 283.195312 59.28125 273.5 67.136719 270.960938 C 74.984375 268.417969 82.597656 262.472656 88.839844 254.800781 C 95.082031 247.117188 108.726562 240.785156 112.851562 234.707031 C 117.152344 228.375 124.589844 220.988281 130.410156 212.3125 C 134 206.957031 133.792969 203.40625 140.515625 200.703125 C 140.515625 200.699219 140.527344 200.183594 140.527344 200.125 C 141.296875 160.410156 157.378906 129.421875 198.40625 125.027344 C 207.789062 124.019531 221.613281 127.453125 236.964844 117.40625 C 255.558594 105.238281 268.523438 78.273438 274.082031 57.476562 C 276.859375 47.097656 277.941406 38.398438 278.257812 33.242188 C 278.550781 28.472656 279.035156 25.492188 279.582031 23.90625 C 252.875 9.011719 222.101562 0.515625 189.347656 0.515625 " fill-opacity="1" fill-rule="evenodd"/></g><g clip-path="url(#54d00aa5e3)"><path fill="#d6852b" d="M 273.945312 101.167969 C 251.777344 154.601562 211.105469 134.398438 183.167969 152.96875 C 167.585938 163.320312 166.925781 187.773438 166.980469 198.25 C 171.859375 198.761719 177.910156 199.976562 182.527344 201.433594 C 187.949219 187.09375 200.910156 172.785156 213.1875 174.785156 C 217.613281 175.503906 221.71875 203.101562 205.097656 218.523438 C 209.027344 223.816406 213.007812 230.679688 216.992188 239.667969 C 233.15625 276.15625 232.230469 294.628906 234.082031 301.554688 C 235.925781 308.480469 239.15625 326.488281 253.9375 334.804688 C 262.132812 339.414062 270.332031 340.472656 276.867188 339.714844 C 287.988281 338.425781 293.636719 336.785156 299.148438 335.742188 C 345.105469 301.960938 374.945312 247.527344 374.945312 186.109375 C 374.945312 117.476562 337.6875 57.558594 282.304688 25.445312 C 282.765625 27.285156 283.109375 29.859375 283.226562 32.789062 C 284.226562 57.949219 283.707031 77.640625 273.945312 101.167969 Z M 221.359375 179.5 C 226.28125 194.875 224.574219 214.253906 208.222656 220.621094 C 207.714844 219.894531 207.214844 219.199219 206.714844 218.523438 C 219.578125 206.59375 220.027344 187.371094 217.519531 178.949219 C 219.074219 178.296875 220.863281 177.953125 221.359375 179.5 " fill-opacity="1" fill-rule="evenodd"/></g></svg>