<svg xmlns="http://www.w3.org/2000/svg" xmlns:xlink="http://www.w3.org/1999/xlink" width="500" zoomAndPan="magnify" viewBox="0 0 375 374.999991" height="500" preserveAspectRatio="xMidYMid meet" version="1.2"><defs><clipPath id="6ed213ff7e"><path d="M 10.316406 194 L 149 194 L 149 316.753906 L 10.316406 316.753906 Z M 10.316406 194 "/></clipPath><clipPath id="0ab3083a63"><path d="M 75 93.253906 L 353.816406 93.253906 L 353.816406 316.753906 L 75 316.753906 Z M 75 93.253906 "/></clipPath></defs><g id="fb7ce57324"><path style=" stroke:none;fill-rule:nonzero;fill:#5170ff;fill-opacity:1;" d="M 319.671875 223.3125 C 319.671875 228.882812 315.160156 233.394531 309.585938 233.394531 L 267.324219 233.394531 C 261.753906 233.394531 257.242188 228.882812 257.242188 223.3125 C 257.242188 217.753906 261.753906 213.242188 267.324219 213.242188 L 309.585938 213.242188 C 315.160156 213.242188 319.671875 217.753906 319.671875 223.3125 "/><path style=" stroke:none;fill-rule:nonzero;fill:#5170ff;fill-opacity:1;" d="M 231.589844 248.757812 L 250.914062 248.757812 C 256.480469 248.757812 260.992188 253.269531 260.992188 258.835938 C 260.992188 264.402344 256.480469 268.917969 250.914062 268.917969 L 231.589844 268.917969 C 226.027344 268.917969 221.511719 264.402344 221.511719 258.835938 C 221.511719 253.269531 226.027344 248.757812 231.589844 248.757812 "/><g clip-rule="nonzero" clip-path="url(#6ed213ff7e)"><path style=" stroke:none;fill-rule:nonzero;fill:#004aad;fill-opacity:1;" d="M 148.355469 316.972656 L 75.546875 316.972656 L 10.4375 194.046875 L 83.246094 194.046875 L 148.355469 316.972656 "/></g><g clip-rule="nonzero" clip-path="url(#0ab3083a63)"><path style=" stroke:none;fill-rule:nonzero;fill:#5170ff;fill-opacity:1;" d="M 353.578125 187.609375 C 353.6875 193.265625 349.136719 197.878906 343.496094 197.878906 L 216.066406 197.878906 C 213.222656 197.878906 210.609375 199.449219 209.277344 201.960938 C 206.566406 207.078125 210.273438 213.242188 216.066406 213.242188 L 238.21875 213.242188 C 243.769531 213.242188 248.527344 217.578125 248.628906 223.128906 C 248.730469 228.785156 244.175781 233.394531 238.546875 233.394531 L 197.25 233.394531 C 194.40625 233.394531 191.792969 234.96875 190.460938 237.484375 C 187.75 242.601562 191.460938 248.757812 197.25 248.757812 L 206.5 248.757812 C 211.839844 248.757812 216.480469 252.785156 216.851562 258.109375 C 217.066406 261.179688 215.910156 263.984375 213.925781 265.96875 C 212.101562 267.789062 209.578125 268.917969 206.804688 268.917969 L 178.4375 268.917969 C 175.59375 268.917969 172.984375 270.488281 171.652344 273 L 148.359375 316.976562 L 75.542969 316.976562 L 111.957031 248.234375 L 121.902344 229.457031 L 141.226562 192.96875 L 194.117188 93.113281 L 266.925781 93.113281 L 228.085938 166.453125 C 225.378906 171.5625 229.085938 177.71875 234.867188 177.71875 L 343.167969 177.71875 C 348.71875 177.71875 353.472656 182.058594 353.578125 187.609375 "/></g><path style="fill:none;stroke-width:4;stroke-linecap:butt;stroke-linejoin:miter;stroke:#5170ff;stroke-opacity:1;stroke-miterlimit:4;" d="M 0.000803505 2.000768 L 139.825839 2.002507 " transform="matrix(0.391972,-0.63942,0.63942,0.391972,97.837541,316.239706)"/></g></svg>